<mxfile host="app.diagrams.net" modified="2024-04-28T20:03:07.314Z" agent="Mozilla/5.0 (Windows NT 10.0; Win64; x64) AppleWebKit/537.36 (KHTML, like Gecko) Chrome/123.0.0.0 Safari/537.36" etag="3uHDoAJARbNibFd3PYk9" version="24.3.1" type="device">
  <diagram id="REkvzNH-Mf0cdmlOTu2t" name="Page-1">
    <mxGraphModel dx="318" dy="819" grid="1" gridSize="10" guides="1" tooltips="1" connect="1" arrows="1" fold="1" page="1" pageScale="1" pageWidth="1100" pageHeight="850" math="0" shadow="0">
      <root>
        <mxCell id="0" />
        <mxCell id="1" parent="0" />
        <mxCell id="zxGRrkXwRp-Dkwxix-Fm-1" value=":File system" style="shape=umlLifeline;perimeter=lifelinePerimeter;whiteSpace=wrap;html=1;container=0;dropTarget=0;collapsible=0;recursiveResize=0;outlineConnect=0;portConstraint=eastwest;newEdgeStyle={&quot;edgeStyle&quot;:&quot;elbowEdgeStyle&quot;,&quot;elbow&quot;:&quot;vertical&quot;,&quot;curved&quot;:0,&quot;rounded&quot;:0};" parent="1" vertex="1">
          <mxGeometry x="1790" y="200" width="100" height="310" as="geometry" />
        </mxCell>
        <mxCell id="zxGRrkXwRp-Dkwxix-Fm-2" value="" style="html=1;points=[];perimeter=orthogonalPerimeter;outlineConnect=0;targetShapes=umlLifeline;portConstraint=eastwest;newEdgeStyle={&quot;edgeStyle&quot;:&quot;elbowEdgeStyle&quot;,&quot;elbow&quot;:&quot;vertical&quot;,&quot;curved&quot;:0,&quot;rounded&quot;:0};" parent="zxGRrkXwRp-Dkwxix-Fm-1" vertex="1">
          <mxGeometry x="45" y="160" width="10" height="50" as="geometry" />
        </mxCell>
        <mxCell id="zxGRrkXwRp-Dkwxix-Fm-3" value=":Backend" style="shape=umlLifeline;perimeter=lifelinePerimeter;whiteSpace=wrap;html=1;container=0;dropTarget=0;collapsible=0;recursiveResize=0;outlineConnect=0;portConstraint=eastwest;newEdgeStyle={&quot;edgeStyle&quot;:&quot;elbowEdgeStyle&quot;,&quot;elbow&quot;:&quot;vertical&quot;,&quot;curved&quot;:0,&quot;rounded&quot;:0};" parent="1" vertex="1">
          <mxGeometry x="1500" y="200" width="100" height="310" as="geometry" />
        </mxCell>
        <mxCell id="zxGRrkXwRp-Dkwxix-Fm-4" value="" style="html=1;points=[];perimeter=orthogonalPerimeter;outlineConnect=0;targetShapes=umlLifeline;portConstraint=eastwest;newEdgeStyle={&quot;edgeStyle&quot;:&quot;elbowEdgeStyle&quot;,&quot;elbow&quot;:&quot;vertical&quot;,&quot;curved&quot;:0,&quot;rounded&quot;:0};" parent="zxGRrkXwRp-Dkwxix-Fm-3" vertex="1">
          <mxGeometry x="45" y="70" width="10" height="40" as="geometry" />
        </mxCell>
        <mxCell id="zxGRrkXwRp-Dkwxix-Fm-5" value="" style="html=1;points=[];perimeter=orthogonalPerimeter;outlineConnect=0;targetShapes=umlLifeline;portConstraint=eastwest;newEdgeStyle={&quot;edgeStyle&quot;:&quot;elbowEdgeStyle&quot;,&quot;elbow&quot;:&quot;vertical&quot;,&quot;curved&quot;:0,&quot;rounded&quot;:0};" parent="zxGRrkXwRp-Dkwxix-Fm-3" vertex="1">
          <mxGeometry x="45" y="130" width="10" height="130" as="geometry" />
        </mxCell>
        <mxCell id="zxGRrkXwRp-Dkwxix-Fm-6" value=":GUI" style="shape=umlLifeline;perimeter=lifelinePerimeter;whiteSpace=wrap;html=1;container=0;dropTarget=0;collapsible=0;recursiveResize=0;outlineConnect=0;portConstraint=eastwest;newEdgeStyle={&quot;edgeStyle&quot;:&quot;elbowEdgeStyle&quot;,&quot;elbow&quot;:&quot;vertical&quot;,&quot;curved&quot;:0,&quot;rounded&quot;:0};" parent="1" vertex="1">
          <mxGeometry x="1180" y="50" width="100" height="460" as="geometry" />
        </mxCell>
        <mxCell id="zxGRrkXwRp-Dkwxix-Fm-7" value="" style="html=1;points=[];perimeter=orthogonalPerimeter;outlineConnect=0;targetShapes=umlLifeline;portConstraint=eastwest;newEdgeStyle={&quot;edgeStyle&quot;:&quot;elbowEdgeStyle&quot;,&quot;elbow&quot;:&quot;vertical&quot;,&quot;curved&quot;:0,&quot;rounded&quot;:0};" parent="zxGRrkXwRp-Dkwxix-Fm-6" vertex="1">
          <mxGeometry x="45" y="70" width="9.38" height="160" as="geometry" />
        </mxCell>
        <mxCell id="zxGRrkXwRp-Dkwxix-Fm-8" value="Select Directory Button" style="html=1;align=left;spacingLeft=2;endArrow=block;rounded=0;edgeStyle=orthogonalEdgeStyle;curved=0;rounded=0;" parent="zxGRrkXwRp-Dkwxix-Fm-6" target="zxGRrkXwRp-Dkwxix-Fm-7" edge="1">
          <mxGeometry x="0.0003" relative="1" as="geometry">
            <mxPoint x="54.38000000000011" y="80" as="sourcePoint" />
            <Array as="points">
              <mxPoint x="100" y="80" />
              <mxPoint x="100" y="110" />
            </Array>
            <mxPoint x="54.38000000000011" y="120" as="targetPoint" />
            <mxPoint as="offset" />
          </mxGeometry>
        </mxCell>
        <mxCell id="zxGRrkXwRp-Dkwxix-Fm-9" value="Stores Directory file path into dictionary" style="html=1;align=left;spacingLeft=2;endArrow=block;rounded=0;edgeStyle=orthogonalEdgeStyle;curved=0;rounded=0;" parent="zxGRrkXwRp-Dkwxix-Fm-6" edge="1">
          <mxGeometry relative="1" as="geometry">
            <mxPoint x="54.38000000000011" y="130" as="sourcePoint" />
            <Array as="points">
              <mxPoint x="100" y="130" />
              <mxPoint x="100" y="160" />
            </Array>
            <mxPoint x="54.38000000000011" y="160" as="targetPoint" />
          </mxGeometry>
        </mxCell>
        <mxCell id="zxGRrkXwRp-Dkwxix-Fm-10" value="" style="html=1;points=[];perimeter=orthogonalPerimeter;outlineConnect=0;targetShapes=umlLifeline;portConstraint=eastwest;newEdgeStyle={&quot;edgeStyle&quot;:&quot;elbowEdgeStyle&quot;,&quot;elbow&quot;:&quot;vertical&quot;,&quot;curved&quot;:0,&quot;rounded&quot;:0};" parent="zxGRrkXwRp-Dkwxix-Fm-6" vertex="1">
          <mxGeometry x="44.38" y="250" width="9.38" height="40" as="geometry" />
        </mxCell>
        <mxCell id="zxGRrkXwRp-Dkwxix-Fm-11" value="Train button pressed" style="html=1;verticalAlign=bottom;endArrow=block;curved=0;rounded=0;" parent="1" source="zxGRrkXwRp-Dkwxix-Fm-7" target="zxGRrkXwRp-Dkwxix-Fm-4" edge="1">
          <mxGeometry x="0.002" width="80" relative="1" as="geometry">
            <mxPoint x="1229.5" y="270" as="sourcePoint" />
            <mxPoint x="1500" y="270" as="targetPoint" />
            <Array as="points">
              <mxPoint x="1450" y="270" />
              <mxPoint x="1480" y="270" />
            </Array>
            <mxPoint as="offset" />
          </mxGeometry>
        </mxCell>
        <mxCell id="zxGRrkXwRp-Dkwxix-Fm-12" value="Request for dictionary" style="html=1;verticalAlign=bottom;endArrow=block;curved=0;rounded=0;" parent="1" target="zxGRrkXwRp-Dkwxix-Fm-10" edge="1">
          <mxGeometry width="80" relative="1" as="geometry">
            <mxPoint x="1545" y="300" as="sourcePoint" />
            <mxPoint x="1234.38" y="300" as="targetPoint" />
          </mxGeometry>
        </mxCell>
        <mxCell id="zxGRrkXwRp-Dkwxix-Fm-13" value="Return dictionary" style="html=1;verticalAlign=bottom;endArrow=open;dashed=1;endSize=8;curved=0;rounded=0;" parent="1" edge="1">
          <mxGeometry relative="1" as="geometry">
            <mxPoint x="1233.7599999999998" y="330" as="sourcePoint" />
            <mxPoint x="1545" y="330" as="targetPoint" />
          </mxGeometry>
        </mxCell>
        <mxCell id="zxGRrkXwRp-Dkwxix-Fm-14" value="Request for subdirectory/files from selected directory" style="html=1;verticalAlign=bottom;endArrow=block;curved=0;rounded=0;" parent="1" source="zxGRrkXwRp-Dkwxix-Fm-5" target="zxGRrkXwRp-Dkwxix-Fm-2" edge="1">
          <mxGeometry width="80" relative="1" as="geometry">
            <mxPoint x="1244.5" y="360" as="sourcePoint" />
            <mxPoint x="1520.5" y="360" as="targetPoint" />
            <mxPoint as="offset" />
            <Array as="points">
              <mxPoint x="1800" y="360" />
            </Array>
          </mxGeometry>
        </mxCell>
        <mxCell id="zxGRrkXwRp-Dkwxix-Fm-15" value="return" style="html=1;verticalAlign=bottom;endArrow=open;dashed=1;endSize=8;curved=0;rounded=0;" parent="1" source="zxGRrkXwRp-Dkwxix-Fm-2" target="zxGRrkXwRp-Dkwxix-Fm-5" edge="1">
          <mxGeometry relative="1" as="geometry">
            <mxPoint x="1560.5" y="380" as="sourcePoint" />
            <mxPoint x="1570" y="390" as="targetPoint" />
          </mxGeometry>
        </mxCell>
        <mxCell id="zxGRrkXwRp-Dkwxix-Fm-16" value="Stores files/labels in array" style="html=1;align=left;spacingLeft=2;endArrow=block;rounded=0;edgeStyle=orthogonalEdgeStyle;curved=0;rounded=0;" parent="1" edge="1">
          <mxGeometry relative="1" as="geometry">
            <mxPoint x="1554.38" y="420" as="sourcePoint" />
            <Array as="points">
              <mxPoint x="1600" y="420" />
              <mxPoint x="1600" y="450" />
            </Array>
            <mxPoint x="1554.38" y="450" as="targetPoint" />
          </mxGeometry>
        </mxCell>
      </root>
    </mxGraphModel>
  </diagram>
</mxfile>
